<svg width="97" height="77" viewBox="0 0 97 77" fill="none" xmlns="http://www.w3.org/2000/svg">
<path d="M16.5896 8.20355C16.5896 3.78525 20.1713 0.203552 24.5896 0.203552H88.5896C93.0076 0.203552 96.5896 3.78525 96.5896 8.20355V52.2036C96.5896 56.6219 93.0076 60.2036 88.5896 60.2036H24.5896C20.1713 60.2036 16.5896 56.6219 16.5896 52.2036V8.20355Z" fill="url(#paint0_linear_70_3036)"/>
<path d="M0.5896 24.2036C0.5896 19.7853 4.1713 16.2036 8.5896 16.2036H72.5896C77.0079 16.2036 80.5896 19.7853 80.5896 24.2036V68.2036C80.5896 72.6219 77.0079 76.2036 72.5896 76.2036H8.5896C4.1713 76.2036 0.5896 72.6219 0.5896 68.2036V24.2036Z" fill="white" fill-opacity="0.4"/>
<path d="M8.5896 50.2036C8.5896 47.9945 10.3805 46.2036 12.5896 46.2036H22.5896C24.7987 46.2036 26.5896 47.9945 26.5896 50.2036C26.5896 52.4127 24.7987 54.2036 22.5896 54.2036H12.5896C10.3805 54.2036 8.5896 52.4127 8.5896 50.2036Z" fill="white" fill-opacity="0.4"/>
<path d="M8.5896 36.2036C8.5896 33.9945 10.3805 32.2036 12.5896 32.2036H28.5896C30.7987 32.2036 32.5896 33.9945 32.5896 36.2036C32.5896 38.4127 30.7987 40.2036 28.5896 40.2036H12.5896C10.3805 40.2036 8.5896 38.4127 8.5896 36.2036Z" fill="white" fill-opacity="0.4"/>
<path d="M8.5896 64.2036C8.5896 61.9945 10.3805 60.2036 12.5896 60.2036H20.5896C22.7987 60.2036 24.5896 61.9945 24.5896 64.2036C24.5896 66.4127 22.7987 68.2036 20.5896 68.2036H12.5896C10.3805 68.2036 8.5896 66.4127 8.5896 64.2036Z" fill="white" fill-opacity="0.4"/>
<path d="M35.5896 12.2036C35.5896 11.099 36.485 10.2036 37.5896 10.2036H43.5896C44.6942 10.2036 45.5896 11.099 45.5896 12.2036V20.2036C45.5896 21.3082 44.6942 22.2036 43.5896 22.2036H37.5896C36.485 22.2036 35.5896 21.3082 35.5896 20.2036V12.2036Z" fill="white" fill-opacity="0.6"/>
<path d="M38.4939 59.3965C43.3249 54.9184 47.6571 52.2036 54.5896 52.2036C61.5221 52.2036 65.8543 54.9184 70.6853 59.3965C72.8313 61.3857 73.1635 64.6223 71.682 66.9978C71.1483 67.8534 70.125 68.2036 69.1165 68.2036H40.0627C39.0542 68.2036 38.0309 67.8534 37.4972 66.9978C36.0157 64.6223 36.3479 61.3857 38.4939 59.3965Z" fill="white" fill-opacity="0.4"/>
<path d="M54.5896 48.2036C59.5602 48.2036 63.5896 44.1742 63.5896 39.2036C63.5896 34.233 59.5602 30.2036 54.5896 30.2036C49.619 30.2036 45.5896 34.233 45.5896 39.2036C45.5896 44.1742 49.619 48.2036 54.5896 48.2036Z" fill="white" fill-opacity="0.4"/>
<defs>
<linearGradient id="paint0_linear_70_3036" x1="16.5896" y1="0.203552" x2="74.1896" y2="77.0036" gradientUnits="userSpaceOnUse">
<stop stop-color="#FFCF71"/>
<stop offset="1" stop-color="#2376DD"/>
</linearGradient>
</defs>
</svg>
